<?xml version="1.0" standalone="no"?>
<!DOCTYPE svg PUBLIC "-//W3C//DTD SVG 20010904//EN"
 "http://www.w3.org/TR/2001/REC-SVG-20010904/DTD/svg10.dtd">
<svg version="1.0" xmlns="http://www.w3.org/2000/svg"
 width="260.000000pt" height="260.000000pt" viewBox="0 0 260.000000 260.000000"
 preserveAspectRatio="xMidYMid meet">
<metadata>
Created by potrace 1.11, written by Peter Selinger 2001-2013
</metadata>
<g transform="translate(0.000000,260.000000) scale(0.100000,-0.100000)"
fill="#000000" stroke="none">
<path d="M1245 2229 c-94 -15 -216 -62 -289 -109 -169 -112 -246 -252 -246
-445 0 -178 63 -298 203 -393 115 -76 192 -103 522 -183 274 -66 369 -111 406
-193 35 -78 20 -164 -42 -231 -97 -105 -324 -143 -513 -84 -124 38 -227 141
-265 265 l-19 59 -179 3 -180 2 9 -62 c13 -83 52 -200 91 -268 17 -30 65 -89
106 -131 61 -61 95 -85 171 -123 52 -25 131 -55 175 -67 104 -27 333 -37 440
-20 275 45 481 200 557 419 19 56 23 86 22 182 -1 131 -18 193 -80 285 -97
147 -261 228 -639 315 -362 83 -433 126 -423 261 8 108 84 170 241 197 162 27
307 -3 395 -83 41 -37 102 -142 102 -177 0 -17 12 -18 180 -18 208 0 192 -11
160 114 -41 159 -147 305 -283 385 -69 41 -199 86 -287 100 -75 12 -262 12
-335 0z"/>
</g>
</svg>
